<svg width="48" height="48" viewBox="0 0 48 48" fill="none" xmlns="http://www.w3.org/2000/svg">
<circle cx="24" cy="24" r="24" fill="#C13B34"/>
<path fill-rule="evenodd" clip-rule="evenodd" d="M13.7797 30.6088C12.7818 31.6069 12.7818 33.2251 13.7797 34.2232C14.7776 35.2213 16.3955 35.2213 17.3934 34.2232L24.0009 27.6146L30.6089 34.2237C31.6068 35.2218 33.2247 35.2218 34.2226 34.2237C35.2206 33.2256 35.2206 31.6074 34.2226 30.6093L27.6147 24.0003L34.2217 17.3922C35.2196 16.3941 35.2196 14.7759 34.2217 13.7779C33.2238 12.7798 31.6058 12.7798 30.6079 13.7779L24.0009 20.3859L17.3944 13.7784C16.3965 12.7803 14.7786 12.7803 13.7807 13.7784C12.7827 14.7764 12.7827 16.3946 13.7807 17.3927L20.3871 24.0003L13.7797 30.6088Z" fill="white"/>
</svg>
